<mxfile host="app.diagrams.net" modified="2024-01-31T07:56:38.921Z" agent="Mozilla/5.0 (Windows NT 10.0; Win64; x64) AppleWebKit/537.36 (KHTML, like Gecko) Chrome/121.0.0.0 Safari/537.36" etag="zOVEO-Ng4m5ZCpdGr-dM" version="23.0.2" type="github">
  <diagram name="Page-1" id="_MTYcoZ_pEvMErZoWSPA">
    <mxGraphModel dx="2612" dy="785" grid="1" gridSize="10" guides="1" tooltips="1" connect="1" arrows="1" fold="1" page="1" pageScale="1" pageWidth="850" pageHeight="1100" math="0" shadow="0">
      <root>
        <mxCell id="0" />
        <mxCell id="1" parent="0" />
        <mxCell id="V4VUdm72Drd0ob-0342w-1" value="" style="ellipse;whiteSpace=wrap;html=1;fillColor=#141414;" parent="1" vertex="1">
          <mxGeometry x="-10" y="280" width="40" height="40" as="geometry" />
        </mxCell>
        <mxCell id="GLb_ZV9gbdRmgJeu4g5t-35" style="edgeStyle=orthogonalEdgeStyle;rounded=0;orthogonalLoop=1;jettySize=auto;html=1;entryX=0;entryY=0.5;entryDx=0;entryDy=0;exitX=1;exitY=0.5;exitDx=0;exitDy=0;" edge="1" parent="1" source="GLb_ZV9gbdRmgJeu4g5t-48" target="GLb_ZV9gbdRmgJeu4g5t-34">
          <mxGeometry relative="1" as="geometry">
            <mxPoint x="380.0000000000002" y="252.5000000000001" as="sourcePoint" />
          </mxGeometry>
        </mxCell>
        <mxCell id="V4VUdm72Drd0ob-0342w-7" value="" style="ellipse;whiteSpace=wrap;html=1;" parent="1" vertex="1">
          <mxGeometry x="1040" y="198.5" width="40" height="40" as="geometry" />
        </mxCell>
        <mxCell id="GLb_ZV9gbdRmgJeu4g5t-37" style="edgeStyle=orthogonalEdgeStyle;rounded=0;orthogonalLoop=1;jettySize=auto;html=1;entryX=0;entryY=0.5;entryDx=0;entryDy=0;exitX=1;exitY=0.5;exitDx=0;exitDy=0;" edge="1" parent="1" source="GLb_ZV9gbdRmgJeu4g5t-50" target="GLb_ZV9gbdRmgJeu4g5t-36">
          <mxGeometry relative="1" as="geometry">
            <mxPoint x="370.0000000000002" y="352.5000000000001" as="sourcePoint" />
          </mxGeometry>
        </mxCell>
        <mxCell id="_5T-766lr0Drp5LMri0m-3" value="Plaats in winkelmandje" style="rounded=0;whiteSpace=wrap;html=1;fontStyle=0" parent="1" vertex="1">
          <mxGeometry x="615" y="180" width="100" height="30" as="geometry" />
        </mxCell>
        <mxCell id="_5T-766lr0Drp5LMri0m-6" value="l" style="rounded=0;whiteSpace=wrap;html=1;" parent="1" vertex="1">
          <mxGeometry x="670" y="100" width="100" height="30" as="geometry" />
        </mxCell>
        <mxCell id="_5T-766lr0Drp5LMri0m-9" value="&lt;font style=&quot;font-size: 8px;&quot;&gt;[Meer items vinden]&lt;/font&gt;" style="text;html=1;strokeColor=none;fillColor=none;align=center;verticalAlign=middle;whiteSpace=wrap;rounded=0;" parent="1" vertex="1">
          <mxGeometry x="850" y="203.5" width="90" height="30" as="geometry" />
        </mxCell>
        <mxCell id="_5T-766lr0Drp5LMri0m-10" value="&lt;font style=&quot;font-size: 8px;&quot;&gt;[Alles gevonden]&lt;/font&gt;" style="text;html=1;strokeColor=none;fillColor=none;align=center;verticalAlign=middle;whiteSpace=wrap;rounded=0;" parent="1" vertex="1">
          <mxGeometry x="590" y="140" width="70" height="30" as="geometry" />
        </mxCell>
        <mxCell id="_5T-766lr0Drp5LMri0m-11" style="edgeStyle=orthogonalEdgeStyle;rounded=0;orthogonalLoop=1;jettySize=auto;html=1;exitX=0.5;exitY=1;exitDx=0;exitDy=0;" parent="1" source="_5T-766lr0Drp5LMri0m-9" target="_5T-766lr0Drp5LMri0m-9" edge="1">
          <mxGeometry relative="1" as="geometry" />
        </mxCell>
        <mxCell id="_5T-766lr0Drp5LMri0m-13" value="" style="endArrow=classic;html=1;rounded=0;exitX=0.5;exitY=0;exitDx=0;exitDy=0;entryX=0.5;entryY=1;entryDx=0;entryDy=0;" parent="1" source="_5T-766lr0Drp5LMri0m-3" target="_5T-766lr0Drp5LMri0m-15" edge="1">
          <mxGeometry width="50" height="50" relative="1" as="geometry">
            <mxPoint x="500" y="350" as="sourcePoint" />
            <mxPoint x="540" y="160" as="targetPoint" />
          </mxGeometry>
        </mxCell>
        <mxCell id="_5T-766lr0Drp5LMri0m-15" value="&lt;div&gt;Bekijk winkelmandje&lt;/div&gt;" style="rounded=0;whiteSpace=wrap;html=1;" parent="1" vertex="1">
          <mxGeometry x="490" y="130" width="100" height="30" as="geometry" />
        </mxCell>
        <mxCell id="6smiF8Wx882gvLgmrUc0-4" value="&lt;div&gt;Inloggen&lt;/div&gt;" style="rounded=0;whiteSpace=wrap;html=1;fontStyle=0" parent="1" vertex="1">
          <mxGeometry x="430" y="580" width="100" height="25" as="geometry" />
        </mxCell>
        <mxCell id="6smiF8Wx882gvLgmrUc0-6" value="&lt;div&gt;Uitloggen&lt;/div&gt;" style="rounded=0;whiteSpace=wrap;html=1;fontStyle=0" parent="1" vertex="1">
          <mxGeometry x="420" y="530" width="130" height="30" as="geometry" />
        </mxCell>
        <mxCell id="6smiF8Wx882gvLgmrUc0-14" value="Toepassen Korting" style="rounded=0;whiteSpace=wrap;html=1;" parent="1" vertex="1">
          <mxGeometry x="790" y="110" width="100" height="30" as="geometry" />
        </mxCell>
        <mxCell id="6smiF8Wx882gvLgmrUc0-15" value="Afrekenen" style="rounded=0;whiteSpace=wrap;html=1;" parent="1" vertex="1">
          <mxGeometry x="900" y="160" width="100" height="30" as="geometry" />
        </mxCell>
        <mxCell id="6smiF8Wx882gvLgmrUc0-19" value="" style="endArrow=classic;html=1;rounded=0;entryX=0;entryY=0.5;entryDx=0;entryDy=0;exitX=1;exitY=0.5;exitDx=0;exitDy=0;" parent="1" source="6smiF8Wx882gvLgmrUc0-15" target="V4VUdm72Drd0ob-0342w-7" edge="1">
          <mxGeometry width="50" height="50" relative="1" as="geometry">
            <mxPoint x="780" y="335" as="sourcePoint" />
            <mxPoint x="780" y="375" as="targetPoint" />
          </mxGeometry>
        </mxCell>
        <mxCell id="6smiF8Wx882gvLgmrUc0-31" value="&lt;font style=&quot;font-size: 8px;&quot;&gt;[Heeft kortingscode]&lt;/font&gt;" style="text;html=1;strokeColor=none;fillColor=none;align=center;verticalAlign=middle;whiteSpace=wrap;rounded=0;" parent="1" vertex="1">
          <mxGeometry x="940" y="90" width="90" height="30" as="geometry" />
        </mxCell>
        <mxCell id="6smiF8Wx882gvLgmrUc0-32" value="&lt;font style=&quot;font-size: 8px;&quot;&gt;[Heeft geen kortingscode]&lt;/font&gt;" style="text;html=1;strokeColor=none;fillColor=none;align=center;verticalAlign=middle;whiteSpace=wrap;rounded=0;" parent="1" vertex="1">
          <mxGeometry x="780" y="170" width="110" height="30" as="geometry" />
        </mxCell>
        <mxCell id="u_5VnhJYnHBc0XyjNgrF-17" value="" style="shape=stencil(TZDdDoMgDIWfhtsFYUt2O93P7ZI9AdEGSFAJdlPffkUat6QXPV/paYvQTb80EIJQ0ndCX4VSSuSQHxPeUEgBE66BweRMzGm/2GSiOyRo0Qw2l+sIyfeAkKi+8+cP1p3P2I8DPZhhQkKz8wivaNpsOpMlMYd9IFVRygtBQljKAlVB0SQY8A/pm5AXKuTIpz1gpLFpJc2d6iRL78r6zHr2HbrCNCMH3jq2PzIzU9F2d1bbvDvP1g3l/Kcb+QI=);whiteSpace=wrap;html=1;" parent="1" vertex="1">
          <mxGeometry x="40" y="470" width="120" height="120" as="geometry" />
        </mxCell>
        <mxCell id="GLb_ZV9gbdRmgJeu4g5t-13" style="edgeStyle=orthogonalEdgeStyle;rounded=0;orthogonalLoop=1;jettySize=auto;html=1;exitX=1;exitY=0.5;exitDx=0;exitDy=0;exitPerimeter=0;entryX=0.5;entryY=0;entryDx=0;entryDy=0;" edge="1" parent="1" source="GLb_ZV9gbdRmgJeu4g5t-12" target="_5T-766lr0Drp5LMri0m-15">
          <mxGeometry relative="1" as="geometry" />
        </mxCell>
        <mxCell id="GLb_ZV9gbdRmgJeu4g5t-12" value="&lt;font style=&quot;font-size: 12px;&quot;&gt;Ga naar winkelmandje&lt;/font&gt;" style="html=1;shape=mxgraph.infographic.ribbonSimple;notch1=20;notch2=0;align=center;verticalAlign=middle;fontSize=14;fontStyle=0;fillColor=#FFFFFF;flipH=0;spacingRight=0;spacingLeft=14;whiteSpace=wrap;" vertex="1" parent="1">
          <mxGeometry x="300" y="80" width="180" height="30" as="geometry" />
        </mxCell>
        <mxCell id="GLb_ZV9gbdRmgJeu4g5t-14" value="Je kan op elk moment naar het winkelmandje" style="shape=note2;boundedLbl=1;whiteSpace=wrap;html=1;size=25;verticalAlign=top;align=center;" vertex="1" parent="1">
          <mxGeometry x="170" width="120" height="80" as="geometry" />
        </mxCell>
        <mxCell id="GLb_ZV9gbdRmgJeu4g5t-16" value="" style="endArrow=none;dashed=1;html=1;dashPattern=1 3;strokeWidth=2;rounded=0;exitX=0;exitY=0;exitDx=90;exitDy=0;exitPerimeter=0;entryX=1.042;entryY=0.577;entryDx=0;entryDy=0;entryPerimeter=0;" edge="1" parent="1" source="GLb_ZV9gbdRmgJeu4g5t-12" target="GLb_ZV9gbdRmgJeu4g5t-14">
          <mxGeometry width="50" height="50" relative="1" as="geometry">
            <mxPoint x="410" y="50" as="sourcePoint" />
            <mxPoint x="460" as="targetPoint" />
            <Array as="points">
              <mxPoint x="390" y="46" />
            </Array>
          </mxGeometry>
        </mxCell>
        <mxCell id="GLb_ZV9gbdRmgJeu4g5t-21" value="&lt;font style=&quot;font-size: 8px;&quot;&gt;[Bekijk populaire producten]&lt;/font&gt;" style="text;html=1;strokeColor=none;fillColor=none;align=center;verticalAlign=middle;whiteSpace=wrap;rounded=0;" vertex="1" parent="1">
          <mxGeometry x="10" y="327.5" width="80" height="30" as="geometry" />
        </mxCell>
        <mxCell id="GLb_ZV9gbdRmgJeu4g5t-22" value="&lt;span style=&quot;font-size: 8px;&quot;&gt;[Producten zoeken]&lt;/span&gt;" style="text;html=1;strokeColor=none;fillColor=none;align=center;verticalAlign=middle;whiteSpace=wrap;rounded=0;" vertex="1" parent="1">
          <mxGeometry x="102.5" y="277.5" width="80" height="20" as="geometry" />
        </mxCell>
        <mxCell id="GLb_ZV9gbdRmgJeu4g5t-23" value="&lt;span style=&quot;font-size: 12px;&quot;&gt;Ga naar je account&lt;br&gt;&lt;/span&gt;" style="html=1;shape=mxgraph.infographic.ribbonSimple;notch1=20;notch2=0;align=center;verticalAlign=middle;fontSize=14;fontStyle=0;fillColor=#FFFFFF;flipH=0;spacingRight=0;spacingLeft=14;whiteSpace=wrap;" vertex="1" parent="1">
          <mxGeometry x="230" y="535" width="180" height="30" as="geometry" />
        </mxCell>
        <mxCell id="GLb_ZV9gbdRmgJeu4g5t-24" value="Je kan op elk moment naar je account" style="shape=note2;boundedLbl=1;whiteSpace=wrap;html=1;size=25;verticalAlign=top;align=center;" vertex="1" parent="1">
          <mxGeometry x="40" y="490" width="120" height="80" as="geometry" />
        </mxCell>
        <mxCell id="GLb_ZV9gbdRmgJeu4g5t-25" value="" style="endArrow=none;dashed=1;html=1;dashPattern=1 3;strokeWidth=2;rounded=0;exitX=0.998;exitY=0.552;exitDx=0;exitDy=0;exitPerimeter=0;entryX=0;entryY=0;entryDx=0;entryDy=0;entryPerimeter=0;" edge="1" parent="1" source="GLb_ZV9gbdRmgJeu4g5t-24" target="GLb_ZV9gbdRmgJeu4g5t-23">
          <mxGeometry width="50" height="50" relative="1" as="geometry">
            <mxPoint x="200" y="510" as="sourcePoint" />
            <mxPoint x="250" y="460" as="targetPoint" />
          </mxGeometry>
        </mxCell>
        <mxCell id="GLb_ZV9gbdRmgJeu4g5t-26" value="" style="rhombus;whiteSpace=wrap;html=1;" vertex="1" parent="1">
          <mxGeometry x="220" y="280" width="30" height="40" as="geometry" />
        </mxCell>
        <mxCell id="GLb_ZV9gbdRmgJeu4g5t-27" value="Bekijk populaire producten" style="rounded=1;whiteSpace=wrap;html=1;" vertex="1" parent="1">
          <mxGeometry x="35" y="399" width="105" height="40" as="geometry" />
        </mxCell>
        <mxCell id="GLb_ZV9gbdRmgJeu4g5t-31" value="" style="endArrow=classic;html=1;rounded=0;exitX=0.5;exitY=0;exitDx=0;exitDy=0;entryX=0;entryY=0.5;entryDx=0;entryDy=0;" edge="1" parent="1" source="GLb_ZV9gbdRmgJeu4g5t-26" target="GLb_ZV9gbdRmgJeu4g5t-48">
          <mxGeometry width="50" height="50" relative="1" as="geometry">
            <mxPoint x="230" y="270" as="sourcePoint" />
            <mxPoint x="280.0000000000002" y="252.4999999999999" as="targetPoint" />
            <Array as="points">
              <mxPoint x="235" y="220" />
            </Array>
          </mxGeometry>
        </mxCell>
        <mxCell id="GLb_ZV9gbdRmgJeu4g5t-57" style="edgeStyle=orthogonalEdgeStyle;rounded=0;orthogonalLoop=1;jettySize=auto;html=1;entryX=0.5;entryY=0;entryDx=0;entryDy=0;" edge="1" parent="1" source="GLb_ZV9gbdRmgJeu4g5t-34" target="GLb_ZV9gbdRmgJeu4g5t-52">
          <mxGeometry relative="1" as="geometry" />
        </mxCell>
        <mxCell id="GLb_ZV9gbdRmgJeu4g5t-59" style="edgeStyle=orthogonalEdgeStyle;rounded=0;orthogonalLoop=1;jettySize=auto;html=1;entryX=0.5;entryY=0;entryDx=0;entryDy=0;" edge="1" parent="1" source="GLb_ZV9gbdRmgJeu4g5t-34" target="GLb_ZV9gbdRmgJeu4g5t-54">
          <mxGeometry relative="1" as="geometry" />
        </mxCell>
        <mxCell id="GLb_ZV9gbdRmgJeu4g5t-34" value="" style="rhombus;whiteSpace=wrap;html=1;" vertex="1" parent="1">
          <mxGeometry x="450" y="198.5" width="30" height="40" as="geometry" />
        </mxCell>
        <mxCell id="GLb_ZV9gbdRmgJeu4g5t-56" style="edgeStyle=orthogonalEdgeStyle;rounded=0;orthogonalLoop=1;jettySize=auto;html=1;entryX=0.5;entryY=1;entryDx=0;entryDy=0;" edge="1" parent="1" source="GLb_ZV9gbdRmgJeu4g5t-36" target="GLb_ZV9gbdRmgJeu4g5t-52">
          <mxGeometry relative="1" as="geometry" />
        </mxCell>
        <mxCell id="GLb_ZV9gbdRmgJeu4g5t-58" style="edgeStyle=orthogonalEdgeStyle;rounded=0;orthogonalLoop=1;jettySize=auto;html=1;entryX=0.5;entryY=1;entryDx=0;entryDy=0;" edge="1" parent="1" source="GLb_ZV9gbdRmgJeu4g5t-36" target="GLb_ZV9gbdRmgJeu4g5t-54">
          <mxGeometry relative="1" as="geometry" />
        </mxCell>
        <mxCell id="GLb_ZV9gbdRmgJeu4g5t-36" value="" style="rhombus;whiteSpace=wrap;html=1;" vertex="1" parent="1">
          <mxGeometry x="450" y="359" width="30" height="40" as="geometry" />
        </mxCell>
        <mxCell id="GLb_ZV9gbdRmgJeu4g5t-40" value="&lt;span style=&quot;font-size: 8px;&quot;&gt;[Product gevonden]&lt;/span&gt;" style="text;html=1;strokeColor=none;fillColor=none;align=center;verticalAlign=middle;whiteSpace=wrap;rounded=0;" vertex="1" parent="1">
          <mxGeometry x="470" y="379" width="80" height="20" as="geometry" />
        </mxCell>
        <mxCell id="GLb_ZV9gbdRmgJeu4g5t-43" value="" style="endArrow=classic;html=1;rounded=0;exitX=0.5;exitY=1;exitDx=0;exitDy=0;entryX=0.045;entryY=0.5;entryDx=0;entryDy=0;entryPerimeter=0;" edge="1" parent="1" source="GLb_ZV9gbdRmgJeu4g5t-26" target="GLb_ZV9gbdRmgJeu4g5t-50">
          <mxGeometry width="50" height="50" relative="1" as="geometry">
            <mxPoint x="250" y="330" as="sourcePoint" />
            <mxPoint x="270.0000000000002" y="352.4999999999999" as="targetPoint" />
            <Array as="points">
              <mxPoint x="235" y="380" />
            </Array>
          </mxGeometry>
        </mxCell>
        <mxCell id="GLb_ZV9gbdRmgJeu4g5t-46" value="&lt;span style=&quot;font-size: 8px;&quot;&gt;[Zoeken]&lt;/span&gt;" style="text;html=1;strokeColor=none;fillColor=none;align=center;verticalAlign=middle;whiteSpace=wrap;rounded=0;" vertex="1" parent="1">
          <mxGeometry x="170" y="327.5" width="80" height="20" as="geometry" />
        </mxCell>
        <mxCell id="GLb_ZV9gbdRmgJeu4g5t-47" value="&lt;span style=&quot;font-size: 8px;&quot;&gt;[Browse]&lt;/span&gt;" style="text;html=1;strokeColor=none;fillColor=none;align=center;verticalAlign=middle;whiteSpace=wrap;rounded=0;" vertex="1" parent="1">
          <mxGeometry x="170" y="227.5" width="80" height="20" as="geometry" />
        </mxCell>
        <mxCell id="GLb_ZV9gbdRmgJeu4g5t-48" value="Browse producten" style="rounded=1;whiteSpace=wrap;html=1;" vertex="1" parent="1">
          <mxGeometry x="280" y="197" width="110" height="43" as="geometry" />
        </mxCell>
        <mxCell id="GLb_ZV9gbdRmgJeu4g5t-50" value="Zoek producten" style="rounded=1;whiteSpace=wrap;html=1;" vertex="1" parent="1">
          <mxGeometry x="280" y="357.5" width="110" height="43" as="geometry" />
        </mxCell>
        <mxCell id="GLb_ZV9gbdRmgJeu4g5t-64" style="edgeStyle=orthogonalEdgeStyle;rounded=0;orthogonalLoop=1;jettySize=auto;html=1;entryX=0;entryY=0.5;entryDx=0;entryDy=0;" edge="1" parent="1" source="GLb_ZV9gbdRmgJeu4g5t-52">
          <mxGeometry relative="1" as="geometry">
            <mxPoint x="620" y="299.9999999999999" as="targetPoint" />
          </mxGeometry>
        </mxCell>
        <mxCell id="GLb_ZV9gbdRmgJeu4g5t-52" value="" style="rhombus;whiteSpace=wrap;html=1;" vertex="1" parent="1">
          <mxGeometry x="560" y="280.5" width="30" height="40" as="geometry" />
        </mxCell>
        <mxCell id="GLb_ZV9gbdRmgJeu4g5t-60" style="edgeStyle=orthogonalEdgeStyle;rounded=0;orthogonalLoop=1;jettySize=auto;html=1;entryX=1;entryY=0.5;entryDx=0;entryDy=0;" edge="1" parent="1" source="GLb_ZV9gbdRmgJeu4g5t-54" target="GLb_ZV9gbdRmgJeu4g5t-26">
          <mxGeometry relative="1" as="geometry" />
        </mxCell>
        <mxCell id="GLb_ZV9gbdRmgJeu4g5t-54" value="" style="rhombus;whiteSpace=wrap;html=1;" vertex="1" parent="1">
          <mxGeometry x="450" y="280" width="30" height="40" as="geometry" />
        </mxCell>
        <mxCell id="GLb_ZV9gbdRmgJeu4g5t-55" value="&lt;span style=&quot;font-size: 8px;&quot;&gt;[Product gevonden]&lt;/span&gt;" style="text;html=1;strokeColor=none;fillColor=none;align=center;verticalAlign=middle;whiteSpace=wrap;rounded=0;" vertex="1" parent="1">
          <mxGeometry x="480" y="200" width="80" height="20" as="geometry" />
        </mxCell>
        <mxCell id="GLb_ZV9gbdRmgJeu4g5t-61" value="&lt;span style=&quot;font-size: 8px;&quot;&gt;[Product niet gevonden]&lt;/span&gt;" style="text;html=1;strokeColor=none;fillColor=none;align=center;verticalAlign=middle;whiteSpace=wrap;rounded=0;" vertex="1" parent="1">
          <mxGeometry x="400" y="238.5" width="80" height="20" as="geometry" />
        </mxCell>
        <mxCell id="GLb_ZV9gbdRmgJeu4g5t-62" value="&lt;span style=&quot;font-size: 8px;&quot;&gt;[Product niet gevonden]&lt;/span&gt;" style="text;html=1;strokeColor=none;fillColor=none;align=center;verticalAlign=middle;whiteSpace=wrap;rounded=0;" vertex="1" parent="1">
          <mxGeometry x="400" y="337.5" width="80" height="20" as="geometry" />
        </mxCell>
        <mxCell id="GLb_ZV9gbdRmgJeu4g5t-65" style="edgeStyle=orthogonalEdgeStyle;rounded=0;orthogonalLoop=1;jettySize=auto;html=1;exitX=0.5;exitY=1;exitDx=0;exitDy=0;" edge="1" parent="1" source="GLb_ZV9gbdRmgJeu4g5t-61" target="GLb_ZV9gbdRmgJeu4g5t-61">
          <mxGeometry relative="1" as="geometry" />
        </mxCell>
        <mxCell id="GLb_ZV9gbdRmgJeu4g5t-66" value="" style="endArrow=classic;html=1;rounded=0;exitX=1;exitY=0.5;exitDx=0;exitDy=0;" edge="1" parent="1" source="V4VUdm72Drd0ob-0342w-1" target="u_5VnhJYnHBc0XyjNgrF-3">
          <mxGeometry width="50" height="50" relative="1" as="geometry">
            <mxPoint x="30" y="300" as="sourcePoint" />
            <mxPoint x="110" y="300" as="targetPoint" />
          </mxGeometry>
        </mxCell>
        <mxCell id="GLb_ZV9gbdRmgJeu4g5t-67" style="edgeStyle=orthogonalEdgeStyle;rounded=0;orthogonalLoop=1;jettySize=auto;html=1;exitX=1;exitY=0.5;exitDx=0;exitDy=0;entryX=0;entryY=0.5;entryDx=0;entryDy=0;" edge="1" parent="1" source="u_5VnhJYnHBc0XyjNgrF-3" target="GLb_ZV9gbdRmgJeu4g5t-26">
          <mxGeometry relative="1" as="geometry" />
        </mxCell>
        <mxCell id="u_5VnhJYnHBc0XyjNgrF-3" value="" style="rhombus;whiteSpace=wrap;html=1;" parent="1" vertex="1">
          <mxGeometry x="72.5" y="280" width="30" height="40" as="geometry" />
        </mxCell>
        <mxCell id="GLb_ZV9gbdRmgJeu4g5t-68" value="" style="endArrow=classic;html=1;rounded=0;exitX=0.5;exitY=1;exitDx=0;exitDy=0;entryX=0.5;entryY=0;entryDx=0;entryDy=0;" edge="1" parent="1" source="u_5VnhJYnHBc0XyjNgrF-3" target="GLb_ZV9gbdRmgJeu4g5t-27">
          <mxGeometry width="50" height="50" relative="1" as="geometry">
            <mxPoint x="100" y="370" as="sourcePoint" />
            <mxPoint x="150" y="320" as="targetPoint" />
          </mxGeometry>
        </mxCell>
        <mxCell id="GLb_ZV9gbdRmgJeu4g5t-73" style="edgeStyle=orthogonalEdgeStyle;rounded=0;orthogonalLoop=1;jettySize=auto;html=1;entryX=0;entryY=0.5;entryDx=0;entryDy=0;" edge="1" parent="1" source="GLb_ZV9gbdRmgJeu4g5t-72" target="GLb_ZV9gbdRmgJeu4g5t-74">
          <mxGeometry relative="1" as="geometry">
            <mxPoint x="760" y="298.9999999999999" as="targetPoint" />
          </mxGeometry>
        </mxCell>
        <mxCell id="GLb_ZV9gbdRmgJeu4g5t-72" value="Bekijken product" style="rounded=1;whiteSpace=wrap;html=1;" vertex="1" parent="1">
          <mxGeometry x="620" y="277.5" width="110" height="43" as="geometry" />
        </mxCell>
        <mxCell id="GLb_ZV9gbdRmgJeu4g5t-75" style="edgeStyle=orthogonalEdgeStyle;rounded=0;orthogonalLoop=1;jettySize=auto;html=1;" edge="1" parent="1" source="GLb_ZV9gbdRmgJeu4g5t-74">
          <mxGeometry relative="1" as="geometry">
            <mxPoint x="815" y="230.0000000000001" as="targetPoint" />
          </mxGeometry>
        </mxCell>
        <mxCell id="GLb_ZV9gbdRmgJeu4g5t-79" style="edgeStyle=orthogonalEdgeStyle;rounded=0;orthogonalLoop=1;jettySize=auto;html=1;" edge="1" parent="1" source="GLb_ZV9gbdRmgJeu4g5t-74">
          <mxGeometry relative="1" as="geometry">
            <mxPoint x="900" y="299" as="targetPoint" />
          </mxGeometry>
        </mxCell>
        <mxCell id="GLb_ZV9gbdRmgJeu4g5t-80" style="edgeStyle=orthogonalEdgeStyle;rounded=0;orthogonalLoop=1;jettySize=auto;html=1;entryX=0.5;entryY=0;entryDx=0;entryDy=0;" edge="1" parent="1" source="GLb_ZV9gbdRmgJeu4g5t-74" target="GLb_ZV9gbdRmgJeu4g5t-82">
          <mxGeometry relative="1" as="geometry">
            <mxPoint x="815" y="389.9999999999999" as="targetPoint" />
          </mxGeometry>
        </mxCell>
        <mxCell id="GLb_ZV9gbdRmgJeu4g5t-74" value="" style="rhombus;whiteSpace=wrap;html=1;" vertex="1" parent="1">
          <mxGeometry x="800" y="279" width="30" height="40" as="geometry" />
        </mxCell>
        <mxCell id="GLb_ZV9gbdRmgJeu4g5t-77" style="edgeStyle=orthogonalEdgeStyle;rounded=0;orthogonalLoop=1;jettySize=auto;html=1;entryX=1;entryY=0.5;entryDx=0;entryDy=0;" edge="1" parent="1" source="GLb_ZV9gbdRmgJeu4g5t-76" target="GLb_ZV9gbdRmgJeu4g5t-54">
          <mxGeometry relative="1" as="geometry" />
        </mxCell>
        <mxCell id="GLb_ZV9gbdRmgJeu4g5t-76" value="A" style="ellipse;html=1;" vertex="1" parent="1">
          <mxGeometry x="505" y="285" width="30" height="30" as="geometry" />
        </mxCell>
        <mxCell id="GLb_ZV9gbdRmgJeu4g5t-78" value="A" style="ellipse;html=1;" vertex="1" parent="1">
          <mxGeometry x="970" y="284" width="30" height="30" as="geometry" />
        </mxCell>
        <mxCell id="GLb_ZV9gbdRmgJeu4g5t-81" value="&lt;span style=&quot;font-size: 8px;&quot;&gt;[Aanbeveling bekijken]&lt;/span&gt;" style="text;html=1;strokeColor=none;fillColor=none;align=center;verticalAlign=middle;whiteSpace=wrap;rounded=0;" vertex="1" parent="1">
          <mxGeometry x="750" y="320" width="80" height="20" as="geometry" />
        </mxCell>
        <mxCell id="GLb_ZV9gbdRmgJeu4g5t-82" value="Aanbeveling bekijken" style="rounded=1;whiteSpace=wrap;html=1;" vertex="1" parent="1">
          <mxGeometry x="760" y="379" width="110" height="43" as="geometry" />
        </mxCell>
        <mxCell id="GLb_ZV9gbdRmgJeu4g5t-86" value="" style="endArrow=classic;html=1;rounded=0;exitX=0;exitY=0.5;exitDx=0;exitDy=0;entryX=0.5;entryY=1;entryDx=0;entryDy=0;" edge="1" parent="1" source="GLb_ZV9gbdRmgJeu4g5t-82" target="GLb_ZV9gbdRmgJeu4g5t-72">
          <mxGeometry width="50" height="50" relative="1" as="geometry">
            <mxPoint x="640" y="410" as="sourcePoint" />
            <mxPoint x="690" y="360" as="targetPoint" />
            <Array as="points">
              <mxPoint x="675" y="400" />
            </Array>
          </mxGeometry>
        </mxCell>
      </root>
    </mxGraphModel>
  </diagram>
</mxfile>
